<svg xmlns="http://www.w3.org/2000/svg" width="760" height="360" viewBox="0 0 760 360">
  <rect width="760" height="360" rx="28" fill="#020617"/>
  <text x="48" y="48" fill="#f8fafc" font-size="26" font-weight="700" font-family="Inter, Arial">Frame-to-SLAM Manifest</text>
  <text x="48" y="76" fill="#94a3b8" font-size="15" font-family="Inter, Arial">24 extracted frames · 200 exported SLAM poses · 4089 point-cloud points</text>
  <rect x="62" y="104" width="560" height="170" rx="22" fill="#07101e" stroke="#263b5f"/>
  <path d="M358.9 138.8 L94.0 232.0 L391.7 120.8 L382.5 102.7 L378.8 167.7 L311.7 228.7 L323.4 231.4 L355.8 149.7 L344.4 216.1 L356.2 190.5 L313.1 202.2 L328.0 192.7 L379.3 192.0 L333.3 82.0 L329.8 146.7 L415.4 96.1 L388.0 119.9 L382.0 168.3 L384.1 157.4 L389.9 159.0 L448.1 162.0 L352.3 165.9 L524.0 134.5 L345.0 138.8" fill="none" stroke="#60a5fa" stroke-width="5" stroke-linecap="round" stroke-linejoin="round"/>
  <circle cx="358.9" cy="138.8" r="7" fill="#e5edf8" stroke="#020617" stroke-width="3"/>
<circle cx="94.0" cy="232.0" r="7" fill="#e5edf8" stroke="#020617" stroke-width="3"/>
<circle cx="391.7" cy="120.8" r="7" fill="#e5edf8" stroke="#020617" stroke-width="3"/>
<circle cx="382.5" cy="102.7" r="7" fill="#e5edf8" stroke="#020617" stroke-width="3"/>
<circle cx="378.8" cy="167.7" r="7" fill="#e5edf8" stroke="#020617" stroke-width="3"/>
<circle cx="311.7" cy="228.7" r="7" fill="#e5edf8" stroke="#020617" stroke-width="3"/>
<circle cx="323.4" cy="231.4" r="7" fill="#e5edf8" stroke="#020617" stroke-width="3"/>
<circle cx="355.8" cy="149.7" r="7" fill="#e5edf8" stroke="#020617" stroke-width="3"/>
<circle cx="344.4" cy="216.1" r="7" fill="#e5edf8" stroke="#020617" stroke-width="3"/>
<circle cx="356.2" cy="190.5" r="7" fill="#e5edf8" stroke="#020617" stroke-width="3"/>
<circle cx="313.1" cy="202.2" r="7" fill="#e5edf8" stroke="#020617" stroke-width="3"/>
<circle cx="328.0" cy="192.7" r="7" fill="#e5edf8" stroke="#020617" stroke-width="3"/>
<circle cx="379.3" cy="192.0" r="7" fill="#e5edf8" stroke="#020617" stroke-width="3"/>
<circle cx="333.3" cy="82.0" r="7" fill="#e5edf8" stroke="#020617" stroke-width="3"/>
<circle cx="329.8" cy="146.7" r="7" fill="#e5edf8" stroke="#020617" stroke-width="3"/>
<circle cx="415.4" cy="96.1" r="7" fill="#e5edf8" stroke="#020617" stroke-width="3"/>
<circle cx="388.0" cy="119.9" r="7" fill="#e5edf8" stroke="#020617" stroke-width="3"/>
<circle cx="382.0" cy="168.3" r="7" fill="#e5edf8" stroke="#020617" stroke-width="3"/>
<circle cx="384.1" cy="157.4" r="7" fill="#e5edf8" stroke="#020617" stroke-width="3"/>
<circle cx="389.9" cy="159.0" r="7" fill="#e5edf8" stroke="#020617" stroke-width="3"/>
<circle cx="448.1" cy="162.0" r="7" fill="#e5edf8" stroke="#020617" stroke-width="3"/>
<circle cx="352.3" cy="165.9" r="7" fill="#e5edf8" stroke="#020617" stroke-width="3"/>
<circle cx="524.0" cy="134.5" r="7" fill="#e5edf8" stroke="#020617" stroke-width="3"/>
<circle cx="345.0" cy="138.8" r="7" fill="#e5edf8" stroke="#020617" stroke-width="3"/>
  <text x="48" y="320" fill="#64748b" font-size="13" font-family="Inter, Arial">Each point is an extracted frame linked to its nearest SLAM pose.</text>
</svg>
